STARTFONT 2.1
FONT -FontForge-Boston-Regular-R-Normal--24-240-72-72-P-135-MacRoman-0
SIZE 24 72 72
FONTBOUNDINGBOX 34 24 0 -4
COMMENT "Generated by fontforge, http://fontforge.sourceforge.net"
STARTPROPERTIES 30
FOUNDRY "FontForge"
FAMILY_NAME "Boston"
WEIGHT_NAME "Regular"
SLANT "R"
SETWIDTH_NAME "Normal"
ADD_STYLE_NAME ""
PIXEL_SIZE 24
POINT_SIZE 240
RESOLUTION_X 72
RESOLUTION_Y 72
SPACING "P"
AVERAGE_WIDTH 135
CHARSET_REGISTRY "MacRoman"
CHARSET_ENCODING "0"
FONTNAME_REGISTRY ""
CHARSET_COLLECTIONS "MacRoman"
FONT_NAME "Boston"
FACE_NAME "Boston"
FONT_VERSION "001.000"
FONT_ASCENT 20
FONT_DESCENT 4
UNDERLINE_POSITION -2
UNDERLINE_THICKNESS 2
X_HEIGHT 9
CAP_HEIGHT 13
RAW_ASCENT 800
RAW_DESCENT 200
NORM_SPACE 10
AVG_LOWERCASE_WIDTH 135
AVG_UPPERCASE_WIDTH 158
ENDPROPERTIES
CHARS 227
STARTCHAR uni0000
ENCODING 0
SWIDTH 0 0
DWIDTH 0 0
BBX 1 1 0 0
BITMAP
00
ENDCHAR
STARTCHAR uni0009
ENCODING 9
SWIDTH 0 0
DWIDTH 18 0
BBX 1 1 0 0
BITMAP
00
ENDCHAR
STARTCHAR uni000A
ENCODING 10
SWIDTH 0 0
DWIDTH 0 0
BBX 1 1 0 0
BITMAP
00
ENDCHAR
STARTCHAR uni000B
ENCODING 11
SWIDTH 0 0
DWIDTH 0 0
BBX 1 1 0 0
BITMAP
00
ENDCHAR
STARTCHAR uni000C
ENCODING 12
SWIDTH 0 0
DWIDTH 0 0
BBX 1 1 0 0
BITMAP
00
ENDCHAR
STARTCHAR uni000D
ENCODING 13
SWIDTH 0 0
DWIDTH 0 0
BBX 1 1 0 0
BITMAP
00
ENDCHAR
STARTCHAR uni001F
ENCODING 31
SWIDTH 0 0
DWIDTH 0 0
BBX 1 1 0 0
BITMAP
00
ENDCHAR
STARTCHAR space
ENCODING 32
SWIDTH 461 0
DWIDTH 10 0
BBX 1 1 10 -4
BITMAP
00
ENDCHAR
STARTCHAR exclam
ENCODING 33
SWIDTH 461 0
DWIDTH 10 0
BBX 1 14 4 0
BITMAP
80
80
80
80
80
80
80
80
80
80
00
00
80
80
ENDCHAR
STARTCHAR quotedbl
ENCODING 34
SWIDTH 461 0
DWIDTH 12 0
BBX 5 5 4 9
BITMAP
88
88
88
88
88
ENDCHAR
STARTCHAR numbersign
ENCODING 35
SWIDTH 615 0
DWIDTH 16 0
BBX 12 10 3 6
BITMAP
0480
0480
0480
7FF0
0900
0900
FFE0
1200
1200
1200
ENDCHAR
STARTCHAR dollar
ENCODING 36
SWIDTH 615 0
DWIDTH 14 0
BBX 9 18 2 -2
BITMAP
0800
0800
3E80
4980
8880
8880
8800
4800
3800
0E00
0900
0880
8880
8880
C900
BE00
0800
0800
ENDCHAR
STARTCHAR percent
ENCODING 37
SWIDTH 692 0
DWIDTH 16 0
BBX 13 14 2 0
BITMAP
3FF0
4810
8420
8440
4880
3100
0200
0400
0860
1090
2108
4108
4090
4060
ENDCHAR
STARTCHAR ampersand
ENCODING 38
SWIDTH 692 0
DWIDTH 14 0
BBX 11 14 2 0
BITMAP
1800
2400
4200
4200
4400
2800
1000
2800
4420
8240
8180
8180
4240
3C20
ENDCHAR
STARTCHAR quotesingle
ENCODING 39
SWIDTH 307 0
DWIDTH 8 0
BBX 1 5 4 9
BITMAP
80
80
80
80
80
ENDCHAR
STARTCHAR parenleft
ENCODING 40
SWIDTH 461 0
DWIDTH 12 0
BBX 7 22 4 -4
BITMAP
02
04
08
10
20
20
40
40
80
80
80
80
80
80
40
40
20
20
10
08
04
02
ENDCHAR
STARTCHAR parenright
ENCODING 41
SWIDTH 461 0
DWIDTH 12 0
BBX 7 22 2 -4
BITMAP
80
40
20
10
08
08
04
04
02
02
02
02
02
02
04
04
08
08
10
20
40
80
ENDCHAR
STARTCHAR asterisk
ENCODING 42
SWIDTH 461 0
DWIDTH 12 0
BBX 9 9 2 5
BITMAP
0800
8880
4900
2A00
1C00
2A00
4900
8880
0800
ENDCHAR
STARTCHAR plus
ENCODING 43
SWIDTH 615 0
DWIDTH 14 0
BBX 11 11 2 1
BITMAP
0400
0400
0400
0400
0400
FFE0
0400
0400
0400
0400
0400
ENDCHAR
STARTCHAR comma
ENCODING 44
SWIDTH 461 0
DWIDTH 10 0
BBX 3 6 2 -4
BITMAP
E0
20
20
20
40
80
ENDCHAR
STARTCHAR hyphen
ENCODING 45
SWIDTH 615 0
DWIDTH 14 0
BBX 10 1 2 6
BITMAP
FFC0
ENDCHAR
STARTCHAR period
ENCODING 46
SWIDTH 461 0
DWIDTH 10 0
BBX 1 2 4 0
BITMAP
80
80
ENDCHAR
STARTCHAR slash
ENCODING 47
SWIDTH 461 0
DWIDTH 10 0
BBX 8 22 1 -4
BITMAP
01
01
01
02
02
04
04
04
08
08
08
10
10
10
20
20
20
40
40
80
80
80
ENDCHAR
STARTCHAR zero
ENCODING 48
SWIDTH 538 0
DWIDTH 12 0
BBX 8 14 2 0
BITMAP
3C
42
81
81
81
81
81
81
81
81
81
81
42
3C
ENDCHAR
STARTCHAR one
ENCODING 49
SWIDTH 538 0
DWIDTH 12 0
BBX 7 14 3 0
BITMAP
10
30
50
90
10
10
10
10
10
10
10
10
10
FE
ENDCHAR
STARTCHAR two
ENCODING 50
SWIDTH 538 0
DWIDTH 12 0
BBX 8 14 2 0
BITMAP
3C
42
81
01
01
01
02
04
08
10
20
41
81
FF
ENDCHAR
STARTCHAR three
ENCODING 51
SWIDTH 538 0
DWIDTH 12 0
BBX 8 14 2 0
BITMAP
FF
82
04
08
10
3C
02
01
01
01
01
81
42
3C
ENDCHAR
STARTCHAR four
ENCODING 52
SWIDTH 538 0
DWIDTH 12 0
BBX 9 14 1 0
BITMAP
0200
0600
0A00
0A00
1200
2200
2200
4200
8200
FF80
0200
0200
0200
0F80
ENDCHAR
STARTCHAR five
ENCODING 53
SWIDTH 538 0
DWIDTH 12 0
BBX 8 14 2 0
BITMAP
FE
80
80
80
80
BC
C2
81
01
01
01
81
42
3C
ENDCHAR
STARTCHAR six
ENCODING 54
SWIDTH 538 0
DWIDTH 12 0
BBX 8 14 2 0
BITMAP
08
10
20
40
40
80
BC
C2
81
81
81
81
42
3C
ENDCHAR
STARTCHAR seven
ENCODING 55
SWIDTH 538 0
DWIDTH 12 0
BBX 8 14 2 0
BITMAP
FF
81
82
02
04
04
04
08
08
08
10
10
10
10
ENDCHAR
STARTCHAR eight
ENCODING 56
SWIDTH 538 0
DWIDTH 12 0
BBX 8 14 2 0
BITMAP
3C
42
81
81
81
42
3C
42
81
81
81
81
42
3C
ENDCHAR
STARTCHAR nine
ENCODING 57
SWIDTH 538 0
DWIDTH 12 0
BBX 8 14 2 0
BITMAP
3C
42
81
81
81
81
43
3D
01
02
02
04
08
10
ENDCHAR
STARTCHAR colon
ENCODING 58
SWIDTH 461 0
DWIDTH 10 0
BBX 1 10 4 0
BITMAP
80
80
00
00
00
00
00
00
80
80
ENDCHAR
STARTCHAR semicolon
ENCODING 59
SWIDTH 461 0
DWIDTH 10 0
BBX 3 14 3 -4
BITMAP
40
40
00
00
00
00
00
00
E0
20
20
20
40
80
ENDCHAR
STARTCHAR less
ENCODING 60
SWIDTH 615 0
DWIDTH 14 0
BBX 10 9 2 2
BITMAP
00C0
0300
0C00
3000
C000
3000
0C00
0300
00C0
ENDCHAR
STARTCHAR equal
ENCODING 61
SWIDTH 615 0
DWIDTH 14 0
BBX 10 5 2 4
BITMAP
FFC0
0000
0000
0000
FFC0
ENDCHAR
STARTCHAR greater
ENCODING 62
SWIDTH 615 0
DWIDTH 14 0
BBX 10 9 2 2
BITMAP
C000
3000
0C00
0300
00C0
0300
0C00
3000
C000
ENDCHAR
STARTCHAR question
ENCODING 63
SWIDTH 538 0
DWIDTH 12 0
BBX 8 14 2 0
BITMAP
3C
42
81
01
01
02
04
08
08
08
00
00
08
08
ENDCHAR
STARTCHAR at
ENCODING 64
SWIDTH 692 0
DWIDTH 16 0
BBX 13 14 2 -2
BITMAP
0700
18C0
2020
4010
4710
8888
8888
8888
8888
4770
4000
2000
1800
0700
ENDCHAR
STARTCHAR A
ENCODING 65
SWIDTH 769 0
DWIDTH 16 0
BBX 13 14 2 0
BITMAP
0200
0200
0500
0500
0880
0880
0880
1040
1040
1FC0
2020
2020
2020
F8F8
ENDCHAR
STARTCHAR B
ENCODING 66
SWIDTH 615 0
DWIDTH 14 0
BBX 11 14 2 0
BITMAP
FF80
2040
2020
2020
2020
2040
3F80
2040
2020
2020
2020
2020
2040
FF80
ENDCHAR
STARTCHAR C
ENCODING 67
SWIDTH 538 0
DWIDTH 14 0
BBX 11 14 2 0
BITMAP
0F20
30E0
4020
4020
8000
8000
8000
8000
8000
8000
4000
4020
30C0
0F00
ENDCHAR
STARTCHAR D
ENCODING 68
SWIDTH 615 0
DWIDTH 16 0
BBX 13 14 2 0
BITMAP
FF80
2060
2010
2010
2008
2008
2008
2008
2008
2008
2010
2010
2060
FF80
ENDCHAR
STARTCHAR E
ENCODING 69
SWIDTH 615 0
DWIDTH 14 0
BBX 11 14 2 0
BITMAP
FFE0
2020
2020
2000
2200
2200
3E00
2200
2200
2000
2000
2020
2020
FFE0
ENDCHAR
STARTCHAR F
ENCODING 70
SWIDTH 615 0
DWIDTH 14 0
BBX 11 14 2 0
BITMAP
FFE0
2020
2020
2000
2080
2080
3F80
2080
2080
2000
2000
2000
2000
F800
ENDCHAR
STARTCHAR G
ENCODING 71
SWIDTH 615 0
DWIDTH 14 0
BBX 11 14 2 0
BITMAP
0F40
30C0
4040
4040
8000
8000
8000
8000
83E0
8020
4020
4060
30A0
0F20
ENDCHAR
STARTCHAR H
ENCODING 72
SWIDTH 692 0
DWIDTH 16 0
BBX 13 14 2 0
BITMAP
F8F8
2020
2020
2020
2020
2020
3FE0
2020
2020
2020
2020
2020
2020
F8F8
ENDCHAR
STARTCHAR I
ENCODING 73
SWIDTH 384 0
DWIDTH 10 0
BBX 5 14 3 0
BITMAP
F8
20
20
20
20
20
20
20
20
20
20
20
20
F8
ENDCHAR
STARTCHAR J
ENCODING 74
SWIDTH 615 0
DWIDTH 14 0
BBX 11 14 2 0
BITMAP
03E0
0080
0080
0080
0080
0080
0080
0080
0080
8080
8080
8080
4100
3E00
ENDCHAR
STARTCHAR K
ENCODING 75
SWIDTH 692 0
DWIDTH 16 0
BBX 13 14 2 0
BITMAP
F9F0
2040
2080
2100
2200
2400
2800
3400
2200
2100
2080
2040
2020
F8F8
ENDCHAR
STARTCHAR L
ENCODING 76
SWIDTH 615 0
DWIDTH 14 0
BBX 11 14 2 0
BITMAP
F800
2000
2000
2000
2000
2000
2000
2000
2000
2000
2000
2020
2020
FFE0
ENDCHAR
STARTCHAR M
ENCODING 77
SWIDTH 923 0
DWIDTH 22 0
BBX 19 14 2 0
BITMAP
F001E0
280280
280280
240480
240480
220880
220880
211080
211080
20A080
20A080
204080
204080
F803E0
ENDCHAR
STARTCHAR N
ENCODING 78
SWIDTH 769 0
DWIDTH 18 0
BBX 15 14 2 0
BITMAP
F03E
2808
2408
2408
2208
2108
2108
2088
2088
2048
2048
2028
2018
F818
ENDCHAR
STARTCHAR O
ENCODING 79
SWIDTH 615 0
DWIDTH 16 0
BBX 13 14 2 0
BITMAP
0700
18C0
2020
4010
4010
8008
8008
8008
8008
4010
4010
2020
18C0
0700
ENDCHAR
STARTCHAR P
ENCODING 80
SWIDTH 615 0
DWIDTH 14 0
BBX 11 14 2 0
BITMAP
FF80
2040
2020
2020
2020
2020
2040
3F80
2000
2000
2000
2000
2000
F800
ENDCHAR
STARTCHAR Q
ENCODING 81
SWIDTH 615 0
DWIDTH 16 0
BBX 13 15 2 -1
BITMAP
0700
18C0
2020
4010
4010
8008
8008
8008
8008
4010
4010
21A0
1840
07A0
0018
ENDCHAR
STARTCHAR R
ENCODING 82
SWIDTH 692 0
DWIDTH 16 0
BBX 13 14 2 0
BITMAP
FF80
2040
2020
2020
2020
2020
2040
3F80
2200
2100
2080
2040
2020
F8F8
ENDCHAR
STARTCHAR S
ENCODING 83
SWIDTH 615 0
DWIDTH 14 0
BBX 11 14 2 0
BITMAP
3F20
40A0
8060
8020
4020
3000
0E00
0180
0040
8020
8020
C020
A040
9F80
ENDCHAR
STARTCHAR T
ENCODING 84
SWIDTH 615 0
DWIDTH 16 0
BBX 13 14 2 0
BITMAP
FFF8
8208
8208
0200
0200
0200
0200
0200
0200
0200
0200
0200
0200
0F80
ENDCHAR
STARTCHAR U
ENCODING 85
SWIDTH 769 0
DWIDTH 18 0
BBX 15 14 2 0
BITMAP
F83E
2008
2008
2008
2008
2008
2008
2008
2008
2008
1010
1010
0820
07C0
ENDCHAR
STARTCHAR V
ENCODING 86
SWIDTH 769 0
DWIDTH 18 0
BBX 17 14 1 0
BITMAP
F80F80
200200
100400
100400
080800
080800
041000
041000
022000
022000
014000
014000
008000
008000
ENDCHAR
STARTCHAR W
ENCODING 87
SWIDTH 1076 0
DWIDTH 24 0
BBX 23 14 1 0
BITMAP
F8003E
200008
201008
101010
102810
102810
082820
084420
044440
044440
028280
028280
010100
010100
ENDCHAR
STARTCHAR X
ENCODING 88
SWIDTH 692 0
DWIDTH 16 0
BBX 13 14 2 0
BITMAP
F8F8
2020
1040
0880
0880
0500
0200
0200
0500
0880
0880
1040
2020
F8F8
ENDCHAR
STARTCHAR Y
ENCODING 89
SWIDTH 769 0
DWIDTH 16 0
BBX 15 14 1 0
BITMAP
F83E
2008
1010
1010
0820
0440
0440
0280
0100
0100
0100
0100
0100
07C0
ENDCHAR
STARTCHAR Z
ENCODING 90
SWIDTH 615 0
DWIDTH 14 0
BBX 11 14 2 0
BITMAP
FFE0
8020
8040
0080
0100
0200
0400
0400
0800
1000
2000
4020
8020
FFE0
ENDCHAR
STARTCHAR bracketleft
ENCODING 91
SWIDTH 461 0
DWIDTH 10 0
BBX 5 22 4 -4
BITMAP
F8
80
80
80
80
80
80
80
80
80
80
80
80
80
80
80
80
80
80
80
80
F8
ENDCHAR
STARTCHAR backslash
ENCODING 92
SWIDTH 461 0
DWIDTH 10 0
BBX 8 22 1 -4
BITMAP
80
80
80
40
40
20
20
20
10
10
10
08
08
08
04
04
04
02
02
01
01
01
ENDCHAR
STARTCHAR bracketright
ENCODING 93
SWIDTH 461 0
DWIDTH 10 0
BBX 5 22 2 -4
BITMAP
F8
08
08
08
08
08
08
08
08
08
08
08
08
08
08
08
08
08
08
08
08
F8
ENDCHAR
STARTCHAR asciicircum
ENCODING 94
SWIDTH 461 0
DWIDTH 12 0
BBX 7 4 3 12
BITMAP
10
28
44
82
ENDCHAR
STARTCHAR underscore
ENCODING 95
SWIDTH 538 0
DWIDTH 12 0
BBX 12 1 0 0
BITMAP
FFF0
ENDCHAR
STARTCHAR grave
ENCODING 96
SWIDTH 307 0
DWIDTH 8 0
BBX 4 4 2 12
BITMAP
80
40
20
10
ENDCHAR
STARTCHAR a
ENCODING 97
SWIDTH 615 0
DWIDTH 14 0
BBX 11 10 2 0
BITMAP
3C00
4300
0080
0780
1880
6080
8080
8180
8280
7CE0
ENDCHAR
STARTCHAR b
ENCODING 98
SWIDTH 615 0
DWIDTH 14 0
BBX 11 14 2 0
BITMAP
E000
2000
2000
2000
2780
2840
3020
2020
2020
2020
2020
3020
2840
E780
ENDCHAR
STARTCHAR c
ENCODING 99
SWIDTH 538 0
DWIDTH 12 0
BBX 9 10 2 0
BITMAP
3E00
4100
8080
8000
8000
8000
8000
8080
4100
3E00
ENDCHAR
STARTCHAR d
ENCODING 100
SWIDTH 615 0
DWIDTH 14 0
BBX 11 14 2 0
BITMAP
0380
0080
0080
0080
3C80
4280
8180
8080
8080
8080
8080
8180
4280
3CE0
ENDCHAR
STARTCHAR e
ENCODING 101
SWIDTH 538 0
DWIDTH 12 0
BBX 9 10 2 0
BITMAP
3E00
4100
8080
8180
8600
9800
E000
8000
4100
3E00
ENDCHAR
STARTCHAR f
ENCODING 102
SWIDTH 384 0
DWIDTH 10 0
BBX 7 14 2 0
BITMAP
0E
10
20
20
FC
20
20
20
20
20
20
20
20
F8
ENDCHAR
STARTCHAR g
ENCODING 103
SWIDTH 538 0
DWIDTH 12 0
BBX 9 14 2 -4
BITMAP
3B80
4400
8200
8200
8200
4400
3800
4000
3E00
4100
8080
8080
4100
3E00
ENDCHAR
STARTCHAR h
ENCODING 104
SWIDTH 692 0
DWIDTH 16 0
BBX 13 14 2 0
BITMAP
E000
2000
2000
2000
23C0
2C20
3020
2020
2020
2020
2020
2020
2020
F8F8
ENDCHAR
STARTCHAR i
ENCODING 105
SWIDTH 307 0
DWIDTH 8 0
BBX 5 14 2 0
BITMAP
20
20
00
00
E0
20
20
20
20
20
20
20
20
F8
ENDCHAR
STARTCHAR j
ENCODING 106
SWIDTH 384 0
DWIDTH 10 0
BBX 7 18 1 -4
BITMAP
02
02
00
00
0E
02
02
02
02
02
02
02
02
02
02
82
44
38
ENDCHAR
STARTCHAR k
ENCODING 107
SWIDTH 615 0
DWIDTH 16 0
BBX 13 14 2 0
BITMAP
E000
2000
2000
2000
23E0
2100
2200
2400
2A00
3100
2080
2040
2020
F8F8
ENDCHAR
STARTCHAR l
ENCODING 108
SWIDTH 307 0
DWIDTH 8 0
BBX 5 14 2 0
BITMAP
E0
20
20
20
20
20
20
20
20
20
20
20
20
F8
ENDCHAR
STARTCHAR m
ENCODING 109
SWIDTH 1076 0
DWIDTH 24 0
BBX 21 10 2 0
BITMAP
E3C3C0
2C2C20
303020
202020
202020
202020
202020
202020
202020
F8F8F8
ENDCHAR
STARTCHAR n
ENCODING 110
SWIDTH 692 0
DWIDTH 16 0
BBX 13 10 2 0
BITMAP
E3C0
2C20
3020
2020
2020
2020
2020
2020
2020
F8F8
ENDCHAR
STARTCHAR o
ENCODING 111
SWIDTH 538 0
DWIDTH 12 0
BBX 9 10 2 0
BITMAP
3E00
4100
8080
8080
8080
8080
8080
8080
4100
3E00
ENDCHAR
STARTCHAR p
ENCODING 112
SWIDTH 615 0
DWIDTH 14 0
BBX 11 14 2 -4
BITMAP
E780
2840
3020
2020
2020
2020
2020
3020
2840
2780
2000
2000
2000
F800
ENDCHAR
STARTCHAR q
ENCODING 113
SWIDTH 615 0
DWIDTH 14 0
BBX 11 14 2 -4
BITMAP
3CE0
4280
8180
8080
8080
8080
8080
8180
4280
3C80
0080
0080
0080
03E0
ENDCHAR
STARTCHAR r
ENCODING 114
SWIDTH 538 0
DWIDTH 14 0
BBX 11 10 2 0
BITMAP
E1E0
2600
2800
3000
2000
2000
2000
2000
2000
F800
ENDCHAR
STARTCHAR s
ENCODING 115
SWIDTH 461 0
DWIDTH 12 0
BBX 9 10 2 0
BITMAP
3E00
4100
8000
8000
7E00
0100
0080
0080
8100
7E00
ENDCHAR
STARTCHAR t
ENCODING 116
SWIDTH 461 0
DWIDTH 10 0
BBX 7 14 2 0
BITMAP
20
20
20
20
FC
20
20
20
20
20
20
20
22
1C
ENDCHAR
STARTCHAR u
ENCODING 117
SWIDTH 692 0
DWIDTH 16 0
BBX 13 10 2 0
BITMAP
E0E0
2020
2020
2020
2020
2020
2020
2060
21A0
1E38
ENDCHAR
STARTCHAR v
ENCODING 118
SWIDTH 692 0
DWIDTH 16 0
BBX 15 10 1 0
BITMAP
F83E
2008
2008
1010
1010
0820
0440
0280
0100
0100
ENDCHAR
STARTCHAR w
ENCODING 119
SWIDTH 923 0
DWIDTH 24 0
BBX 23 10 1 0
BITMAP
F8103E
201008
102810
102810
084420
044440
048240
028280
010100
010100
ENDCHAR
STARTCHAR x
ENCODING 120
SWIDTH 615 0
DWIDTH 14 0
BBX 11 10 2 0
BITMAP
F1E0
2080
1100
0A00
0400
0400
0A00
1100
2080
F1E0
ENDCHAR
STARTCHAR y
ENCODING 121
SWIDTH 692 0
DWIDTH 16 0
BBX 15 14 1 -4
BITMAP
F83E
2008
1010
1010
0820
0440
0440
0280
0280
0100
0200
0200
0400
1800
ENDCHAR
STARTCHAR z
ENCODING 122
SWIDTH 538 0
DWIDTH 12 0
BBX 9 10 2 0
BITMAP
FF80
8080
8100
0200
0400
1800
2000
4080
8080
FF80
ENDCHAR
STARTCHAR braceleft
ENCODING 123
SWIDTH 538 0
DWIDTH 12 0
BBX 9 22 2 -4
BITMAP
0380
0400
0800
0800
0800
0800
0800
0800
0800
1000
E000
1000
0800
0800
0800
0800
0800
0800
0800
0800
0400
0380
ENDCHAR
STARTCHAR bar
ENCODING 124
SWIDTH 153 0
DWIDTH 4 0
BBX 1 22 2 -4
BITMAP
80
80
80
80
80
80
80
80
80
80
80
80
80
80
80
80
80
80
80
80
80
80
ENDCHAR
STARTCHAR braceright
ENCODING 125
SWIDTH 538 0
DWIDTH 12 0
BBX 9 22 2 -4
BITMAP
E000
1000
0800
0800
0800
0800
0800
0800
0800
0400
0380
0400
0800
0800
0800
0800
0800
0800
0800
0800
1000
E000
ENDCHAR
STARTCHAR asciitilde
ENCODING 126
SWIDTH 615 0
DWIDTH 14 0
BBX 11 3 2 5
BITMAP
3820
4440
8380
ENDCHAR
STARTCHAR uni007F
ENCODING 127
SWIDTH 0 0
DWIDTH 0 0
BBX 1 1 0 -4
BITMAP
00
ENDCHAR
STARTCHAR Adieresis
ENCODING 128
SWIDTH 769 0
DWIDTH 16 0
BBX 13 18 2 0
BITMAP
0880
0880
0000
0000
0200
0200
0500
0500
0880
0880
0880
1040
1040
1FC0
2020
2020
2020
F8F8
ENDCHAR
STARTCHAR Aring
ENCODING 129
SWIDTH 769 0
DWIDTH 16 0
BBX 13 19 2 0
BITMAP
0700
0880
0880
0880
0700
0200
0200
0500
0500
0880
0880
0880
1040
1040
1FC0
2020
2020
2020
F8F8
ENDCHAR
STARTCHAR Ccedilla
ENCODING 130
SWIDTH 538 0
DWIDTH 14 0
BBX 11 18 2 -4
BITMAP
0F20
30E0
4020
4020
8000
8000
8000
8000
8000
8000
4000
4020
30C0
0F00
0300
0100
0100
0E00
ENDCHAR
STARTCHAR Eacute
ENCODING 131
SWIDTH 615 0
DWIDTH 14 0
BBX 11 20 2 0
BITMAP
0080
0100
0200
0400
0000
0000
FFE0
2020
2020
2000
2200
2200
3E00
2200
2200
2000
2000
2020
2020
FFE0
ENDCHAR
STARTCHAR Ntilde
ENCODING 132
SWIDTH 769 0
DWIDTH 18 0
BBX 15 19 2 0
BITMAP
0610
0920
10C0
0000
0000
F03E
2808
2408
2408
2208
2208
2108
2108
2088
2088
2048
2048
2028
F81E
ENDCHAR
STARTCHAR Odieresis
ENCODING 133
SWIDTH 615 0
DWIDTH 16 0
BBX 13 18 2 0
BITMAP
1040
1040
0000
0000
0700
18C0
2020
4010
4010
8008
8008
8008
8008
4010
4010
2020
18C0
0700
ENDCHAR
STARTCHAR Udieresis
ENCODING 134
SWIDTH 769 0
DWIDTH 18 0
BBX 15 18 2 0
BITMAP
0820
0820
0000
0000
F83E
2008
2008
2008
2008
2008
2008
2008
2008
2008
1010
1010
0820
07C0
ENDCHAR
STARTCHAR aacute
ENCODING 135
SWIDTH 615 0
DWIDTH 14 0
BBX 11 16 2 0
BITMAP
0200
0400
0800
1000
0000
0000
3C00
4300
0080
0780
1880
6080
8080
8180
8280
7CE0
ENDCHAR
STARTCHAR agrave
ENCODING 136
SWIDTH 615 0
DWIDTH 14 0
BBX 11 16 2 0
BITMAP
2000
1000
0800
0400
0000
0000
3C00
4300
0080
0780
1880
6080
8080
8180
8280
7CE0
ENDCHAR
STARTCHAR acircumflex
ENCODING 137
SWIDTH 615 0
DWIDTH 14 0
BBX 11 16 2 0
BITMAP
0800
1400
2200
4100
0000
0000
3C00
4300
0080
0780
1880
6080
8080
8180
8280
7CE0
ENDCHAR
STARTCHAR adieresis
ENCODING 138
SWIDTH 615 0
DWIDTH 14 0
BBX 11 14 2 0
BITMAP
4100
4100
0000
0000
3C00
4300
0080
0780
1880
6080
8080
8180
8280
7CE0
ENDCHAR
STARTCHAR atilde
ENCODING 139
SWIDTH 615 0
DWIDTH 14 0
BBX 11 15 2 0
BITMAP
3080
4900
8600
0000
0000
3C00
4300
0080
0780
1880
6080
8080
8180
8280
7CE0
ENDCHAR
STARTCHAR aring
ENCODING 140
SWIDTH 615 0
DWIDTH 14 0
BBX 11 17 2 0
BITMAP
1C00
2200
2200
2200
1C00
0000
0000
3C00
4300
0080
0780
1880
6080
8080
8180
8280
7CE0
ENDCHAR
STARTCHAR ccedilla
ENCODING 141
SWIDTH 538 0
DWIDTH 12 0
BBX 9 14 2 -4
BITMAP
3E00
4100
8080
8000
8000
8000
8000
8080
4100
3E00
0600
0200
0200
1C00
ENDCHAR
STARTCHAR eacute
ENCODING 142
SWIDTH 538 0
DWIDTH 12 0
BBX 9 16 2 0
BITMAP
0200
0400
0800
1000
0000
0000
3E00
4100
8080
8180
8600
9800
E000
8000
4100
3E00
ENDCHAR
STARTCHAR egrave
ENCODING 143
SWIDTH 538 0
DWIDTH 12 0
BBX 9 16 2 0
BITMAP
2000
1000
0800
0400
0000
0000
3E00
4100
8080
8180
8600
9800
E000
8000
4100
3E00
ENDCHAR
STARTCHAR ecircumflex
ENCODING 144
SWIDTH 538 0
DWIDTH 12 0
BBX 9 16 2 0
BITMAP
0800
1400
2200
4100
0000
0000
3E00
4100
8080
8180
8600
9800
E000
8000
4100
3E00
ENDCHAR
STARTCHAR edieresis
ENCODING 145
SWIDTH 538 0
DWIDTH 12 0
BBX 9 14 2 0
BITMAP
4100
4100
0000
0000
3E00
4100
8080
8180
8600
9800
E000
8000
4100
3E00
ENDCHAR
STARTCHAR iacute
ENCODING 146
SWIDTH 307 0
DWIDTH 8 0
BBX 5 16 2 0
BITMAP
10
20
40
80
00
00
E0
20
20
20
20
20
20
20
20
F8
ENDCHAR
STARTCHAR igrave
ENCODING 147
SWIDTH 307 0
DWIDTH 8 0
BBX 5 16 2 0
BITMAP
80
40
20
10
00
00
E0
20
20
20
20
20
20
20
20
F8
ENDCHAR
STARTCHAR icircumflex
ENCODING 148
SWIDTH 307 0
DWIDTH 10 0
BBX 7 16 2 0
BITMAP
10
28
44
82
00
00
70
10
10
10
10
10
10
10
10
7C
ENDCHAR
STARTCHAR idieresis
ENCODING 149
SWIDTH 307 0
DWIDTH 10 0
BBX 5 14 3 0
BITMAP
88
88
00
00
E0
20
20
20
20
20
20
20
20
F8
ENDCHAR
STARTCHAR ntilde
ENCODING 150
SWIDTH 692 0
DWIDTH 16 0
BBX 13 15 2 0
BITMAP
0C20
1240
2180
0000
0000
E3C0
2C20
3020
2020
2020
2020
2020
2020
2020
F8F8
ENDCHAR
STARTCHAR oacute
ENCODING 151
SWIDTH 538 0
DWIDTH 12 0
BBX 9 16 2 0
BITMAP
0100
0200
0400
0800
0000
0000
3E00
4100
8080
8080
8080
8080
8080
8080
4100
3E00
ENDCHAR
STARTCHAR ograve
ENCODING 152
SWIDTH 538 0
DWIDTH 12 0
BBX 9 16 2 0
BITMAP
2000
1000
0800
0400
0000
0000
3E00
4100
8080
8080
8080
8080
8080
8080
4100
3E00
ENDCHAR
STARTCHAR ocircumflex
ENCODING 153
SWIDTH 538 0
DWIDTH 12 0
BBX 9 16 2 0
BITMAP
0800
1400
2200
4100
0000
0000
3E00
4100
8080
8080
8080
8080
8080
8080
4100
3E00
ENDCHAR
STARTCHAR odieresis
ENCODING 154
SWIDTH 538 0
DWIDTH 12 0
BBX 9 14 2 0
BITMAP
4100
4100
0000
0000
3E00
4100
8080
8080
8080
8080
8080
8080
4100
3E00
ENDCHAR
STARTCHAR otilde
ENCODING 155
SWIDTH 538 0
DWIDTH 12 0
BBX 9 15 2 0
BITMAP
3080
4900
8600
0000
0000
3E00
4100
8080
8080
8080
8080
8080
8080
4100
3E00
ENDCHAR
STARTCHAR uacute
ENCODING 156
SWIDTH 692 0
DWIDTH 16 0
BBX 13 16 2 0
BITMAP
0080
0100
0200
0400
0000
0000
E0E0
2020
2020
2020
2020
2020
2020
2060
21A0
1E38
ENDCHAR
STARTCHAR ugrave
ENCODING 157
SWIDTH 692 0
DWIDTH 16 0
BBX 13 16 2 0
BITMAP
0800
0400
0200
0100
0000
0000
E0E0
2020
2020
2020
2020
2020
2020
2060
21A0
1E38
ENDCHAR
STARTCHAR ucircumflex
ENCODING 158
SWIDTH 692 0
DWIDTH 16 0
BBX 13 16 2 0
BITMAP
0200
0500
0880
1040
0000
0000
E0E0
2020
2020
2020
2020
2020
2020
2060
21A0
1E38
ENDCHAR
STARTCHAR udieresis
ENCODING 159
SWIDTH 692 0
DWIDTH 16 0
BBX 13 14 2 0
BITMAP
2080
2080
0000
0000
E0E0
2020
2020
2020
2020
2020
2020
2060
21A0
1E38
ENDCHAR
STARTCHAR dagger
ENCODING 160
SWIDTH 769 0
DWIDTH 16 0
BBX 15 20 1 0
BITMAP
0020
0040
0080
0100
0000
0000
F83E
2008
1010
1010
0820
0440
0440
0280
0100
0100
0100
0100
0100
07C0
ENDCHAR
STARTCHAR degree
ENCODING 161
SWIDTH 384 0
DWIDTH 10 0
BBX 7 6 2 8
BITMAP
38
44
82
82
44
38
ENDCHAR
STARTCHAR cent
ENCODING 162
SWIDTH 461 0
DWIDTH 12 0
BBX 9 18 2 -2
BITMAP
0800
0800
0800
0800
3E00
4900
8880
8800
8800
8800
8800
8880
4900
3E00
0800
0800
0800
0800
ENDCHAR
STARTCHAR sterling
ENCODING 163
SWIDTH 615 0
DWIDTH 14 0
BBX 9 14 2 0
BITMAP
0C00
1200
2000
2000
2000
2000
2000
F800
2000
2000
2000
2080
2100
FE00
ENDCHAR
STARTCHAR section
ENCODING 164
SWIDTH 538 0
DWIDTH 12 0
BBX 8 22 2 -4
BITMAP
3C
42
81
81
80
80
40
3C
42
81
81
81
81
42
3C
02
01
01
81
81
42
3C
ENDCHAR
STARTCHAR bullet
ENCODING 165
SWIDTH 461 0
DWIDTH 10 0
BBX 6 6 2 4
BITMAP
30
78
FC
FC
78
30
ENDCHAR
STARTCHAR paragraph
ENCODING 166
SWIDTH 692 0
DWIDTH 16 0
BBX 13 22 2 -4
BITMAP
3FF8
7F20
FF20
FF20
FF20
FF20
FF20
FF20
FF20
7F20
3F20
0120
0120
0120
0120
0120
0120
0120
0120
0120
0120
0120
ENDCHAR
STARTCHAR germandbls
ENCODING 167
SWIDTH 538 0
DWIDTH 14 0
BBX 11 14 2 0
BITMAP
0700
0880
1080
1100
7300
1080
1040
1020
1020
1020
1020
1220
1240
F180
ENDCHAR
STARTCHAR registered
ENCODING 168
SWIDTH 615 0
DWIDTH 16 0
BBX 13 14 2 0
BITMAP
0F80
0200
0200
3FE0
4210
8208
8208
8208
8208
4210
3FE0
0200
0200
0F80
ENDCHAR
STARTCHAR copyright
ENCODING 169
SWIDTH 692 0
DWIDTH 16 0
BBX 13 14 2 0
BITMAP
0700
18C0
2020
4010
4710
8888
8808
8808
8888
4710
4010
2020
18C0
0700
ENDCHAR
STARTCHAR trademark
ENCODING 170
SWIDTH 769 0
DWIDTH 20 0
BBX 17 6 2 8
BITMAP
FE8080
10C180
10A280
109480
108880
108080
ENDCHAR
STARTCHAR acute
ENCODING 171
SWIDTH 230 0
DWIDTH 8 0
BBX 4 4 2 12
BITMAP
10
20
40
80
ENDCHAR
STARTCHAR dieresis
ENCODING 172
SWIDTH 384 0
DWIDTH 10 0
BBX 5 2 3 14
BITMAP
88
88
ENDCHAR
STARTCHAR notequal
ENCODING 173
SWIDTH 615 0
DWIDTH 14 0
BBX 11 9 2 2
BITMAP
0040
0080
FFE0
0200
0400
0800
FFE0
2000
4000
ENDCHAR
STARTCHAR AE
ENCODING 174
SWIDTH 923 0
DWIDTH 20 0
BBX 17 14 2 0
BITMAP
03FF80
018080
028080
028000
048800
048800
0FF800
088800
108800
108000
108000
208080
208080
F3FF80
ENDCHAR
STARTCHAR Oslash
ENCODING 175
SWIDTH 615 0
DWIDTH 16 0
BBX 13 14 2 0
BITMAP
0708
18D0
2020
4050
4090
8108
8208
8208
8408
4810
5010
2020
58C0
8700
ENDCHAR
STARTCHAR infinity
ENCODING 176
SWIDTH 923 0
DWIDTH 22 0
BBX 19 10 2 2
BITMAP
0C0600
331980
40A040
40A040
804020
804020
40A040
40A040
331980
0C0600
ENDCHAR
STARTCHAR plusminus
ENCODING 177
SWIDTH 615 0
DWIDTH 14 0
BBX 11 14 2 0
BITMAP
0400
0400
0400
0400
0400
FFE0
0400
0400
0400
0400
0400
0000
0000
FFE0
ENDCHAR
STARTCHAR lessequal
ENCODING 178
SWIDTH 615 0
DWIDTH 14 0
BBX 10 12 2 0
BITMAP
00C0
0300
0C00
3000
C000
3000
0C00
0300
00C0
0000
0000
FFC0
ENDCHAR
STARTCHAR greaterequal
ENCODING 179
SWIDTH 615 0
DWIDTH 14 0
BBX 10 12 2 0
BITMAP
C000
3000
0C00
0300
00C0
0300
0C00
3000
C000
0000
0000
FFC0
ENDCHAR
STARTCHAR yen
ENCODING 180
SWIDTH 615 0
DWIDTH 12 0
BBX 11 14 1 0
BITMAP
E0E0
2080
1100
0A00
0400
3F80
0400
0400
3F80
0400
0400
0400
0400
0E00
ENDCHAR
STARTCHAR mu
ENCODING 181
SWIDTH 538 0
DWIDTH 12 0
BBX 9 12 2 -4
BITMAP
8200
8200
8200
8200
8200
8200
C500
B880
8000
8000
8000
8000
ENDCHAR
STARTCHAR partialdiff
ENCODING 182
SWIDTH 461 0
DWIDTH 10 0
BBX 7 14 2 0
BITMAP
60
90
88
40
20
10
38
44
82
82
82
82
44
38
ENDCHAR
STARTCHAR summation
ENCODING 183
SWIDTH 615 0
DWIDTH 14 0
BBX 11 14 2 0
BITMAP
FFE0
4020
2020
1000
0800
0400
0200
0200
0400
0800
1000
2020
4020
FFE0
ENDCHAR
STARTCHAR product
ENCODING 184
SWIDTH 692 0
DWIDTH 18 0
BBX 15 14 2 0
BITMAP
FFFE
2008
2008
2008
2008
2008
2008
2008
2008
2008
2008
2008
2008
F83E
ENDCHAR
STARTCHAR pi
ENCODING 185
SWIDTH 615 0
DWIDTH 16 0
BBX 13 9 2 0
BITMAP
0008
3FF0
4840
8840
0840
0840
0840
2850
1020
ENDCHAR
STARTCHAR integral
ENCODING 186
SWIDTH 461 0
DWIDTH 12 0
BBX 9 18 2 -4
BITMAP
3C00
4200
8100
8100
8100
8200
BE00
8100
8080
8080
8080
8080
8100
BE00
8000
8000
8000
8000
ENDCHAR
STARTCHAR ordfeminine
ENCODING 187
SWIDTH 384 0
DWIDTH 10 0
BBX 6 14 2 2
BITMAP
80
80
80
80
80
B8
C4
84
84
84
88
90
A0
C0
ENDCHAR
STARTCHAR ordmasculine
ENCODING 188
SWIDTH 538 0
DWIDTH 12 0
BBX 8 16 2 0
BITMAP
04
04
24
25
26
2C
34
65
A6
2C
34
64
A4
24
20
20
ENDCHAR
STARTCHAR Omega
ENCODING 189
SWIDTH 615 0
DWIDTH 16 0
BBX 13 14 2 0
BITMAP
0700
18C0
2020
4010
4010
8008
8008
4010
4010
2020
1040
8888
8888
F8F8
ENDCHAR
STARTCHAR ae
ENCODING 190
SWIDTH 923 0
DWIDTH 20 0
BBX 17 10 2 0
BITMAP
3C3E00
434100
008080
078180
188600
609800
80E000
818000
824100
7C3E00
ENDCHAR
STARTCHAR oslash
ENCODING 191
SWIDTH 538 0
DWIDTH 12 0
BBX 9 10 2 0
BITMAP
3E80
4100
8280
8480
8880
8880
9080
A080
4100
BE00
ENDCHAR
STARTCHAR questiondown
ENCODING 192
SWIDTH 461 0
DWIDTH 12 0
BBX 8 14 2 -4
BITMAP
10
10
00
00
10
10
10
20
40
80
80
81
42
3C
ENDCHAR
STARTCHAR exclamdown
ENCODING 193
SWIDTH 307 0
DWIDTH 8 0
BBX 1 14 4 -4
BITMAP
80
80
00
00
80
80
80
80
80
80
80
80
80
80
ENDCHAR
STARTCHAR logicalnot
ENCODING 194
SWIDTH 615 0
DWIDTH 16 0
BBX 13 18 2 -4
BITMAP
0200
0200
0200
0200
0200
0200
4210
8208
8208
8208
4210
4210
3260
0F80
0200
0200
0200
0200
ENDCHAR
STARTCHAR radical
ENCODING 195
SWIDTH 615 0
DWIDTH 14 0
BBX 12 24 2 -4
BITMAP
0010
0010
0010
0020
0020
0020
0040
0040
0080
0080
0080
0100
8100
8100
8200
4200
4200
4400
4400
2400
2800
2800
1000
1000
ENDCHAR
STARTCHAR florin
ENCODING 196
SWIDTH 461 0
DWIDTH 12 0
BBX 9 18 2 -4
BITMAP
0800
0800
0800
0800
0800
0800
3E00
4900
8880
8880
8880
8880
4900
3E00
0800
0800
0800
0800
ENDCHAR
STARTCHAR approxequal
ENCODING 197
SWIDTH 615 0
DWIDTH 14 0
BBX 11 8 2 3
BITMAP
3820
4440
8380
0000
0000
3820
4440
8380
ENDCHAR
STARTCHAR Delta
ENCODING 198
SWIDTH 769 0
DWIDTH 16 0
BBX 13 14 2 0
BITMAP
0200
0200
0500
0500
0880
0880
1040
1040
2020
2020
4010
4010
8008
FFF8
ENDCHAR
STARTCHAR guillemotleft
ENCODING 199
SWIDTH 538 0
DWIDTH 14 0
BBX 12 11 1 0
BITMAP
0410
0820
1040
2080
4100
8200
4100
2080
1040
0820
0410
ENDCHAR
STARTCHAR guillemotright
ENCODING 200
SWIDTH 538 0
DWIDTH 15 0
BBX 12 11 2 0
BITMAP
8200
4100
2080
1040
0820
0410
0820
1040
2080
4100
8200
ENDCHAR
STARTCHAR ellipsis
ENCODING 201
SWIDTH 1692 0
DWIDTH 40 0
BBX 27 2 7 0
BITMAP
80040020
80040020
ENDCHAR
STARTCHAR uni00A0
ENCODING 202
SWIDTH 76 0
DWIDTH 2 0
BBX 1 1 2 -4
BITMAP
00
ENDCHAR
STARTCHAR Agrave
ENCODING 203
SWIDTH 923 0
DWIDTH 22 0
BBX 16 16 4 0
BITMAP
2020
6020
A040
2040
2080
2080
213F
2122
2204
2208
041C
0402
0801
0801
1022
101C
ENDCHAR
STARTCHAR Atilde
ENCODING 204
SWIDTH 923 0
DWIDTH 22 0
BBX 17 16 4 0
BITMAP
FC1000
881000
102000
202000
704000
084000
048200
048600
890A00
711200
022200
024200
047F80
040200
080200
080700
ENDCHAR
STARTCHAR Otilde
ENCODING 205
SWIDTH 615 0
DWIDTH 16 0
BBX 13 19 2 0
BITMAP
0C20
1240
2180
0000
0000
0700
18C0
2020
4010
4010
8008
8008
8008
8008
4010
4010
2020
18C0
0700
ENDCHAR
STARTCHAR OE
ENCODING 206
SWIDTH 1000 0
DWIDTH 22 0
BBX 19 14 2 0
BITMAP
07FFE0
182020
202020
402000
402200
802200
803E00
802200
802200
402000
402000
202020
182020
07FFE0
ENDCHAR
STARTCHAR oe
ENCODING 207
SWIDTH 923 0
DWIDTH 20 0
BBX 17 10 2 0
BITMAP
3E3E00
414100
808080
808180
808600
809800
80E000
808000
414100
3E3E00
ENDCHAR
STARTCHAR endash
ENCODING 208
SWIDTH 384 0
DWIDTH 10 0
BBX 6 1 2 6
BITMAP
FC
ENDCHAR
STARTCHAR emdash
ENCODING 209
SWIDTH 1076 0
DWIDTH 24 0
BBX 21 1 2 6
BITMAP
FFFFF8
ENDCHAR
STARTCHAR quotedblleft
ENCODING 210
SWIDTH 538 0
DWIDTH 14 0
BBX 8 5 3 9
BITMAP
21
42
84
84
E7
ENDCHAR
STARTCHAR quotedblright
ENCODING 211
SWIDTH 538 0
DWIDTH 14 0
BBX 8 5 3 9
BITMAP
E7
21
21
42
84
ENDCHAR
STARTCHAR quoteleft
ENCODING 212
SWIDTH 307 0
DWIDTH 8 0
BBX 3 5 2 9
BITMAP
20
40
80
80
E0
ENDCHAR
STARTCHAR quoteright
ENCODING 213
SWIDTH 307 0
DWIDTH 8 0
BBX 3 5 3 9
BITMAP
E0
20
20
40
80
ENDCHAR
STARTCHAR divide
ENCODING 214
SWIDTH 615 0
DWIDTH 14 0
BBX 11 11 2 1
BITMAP
0400
0400
0000
0000
0000
FFE0
0000
0000
0000
0400
0400
ENDCHAR
STARTCHAR lozenge
ENCODING 215
SWIDTH 615 0
DWIDTH 14 0
BBX 11 11 2 1
BITMAP
8020
4040
2080
1100
0A00
0400
0A00
1100
2080
4040
8020
ENDCHAR
STARTCHAR ydieresis
ENCODING 216
SWIDTH 692 0
DWIDTH 16 0
BBX 15 18 1 -4
BITMAP
0820
0820
0000
0000
F83E
2008
1010
1010
0820
0440
0440
0280
0280
0100
0200
0200
0400
1800
ENDCHAR
STARTCHAR Ydieresis
ENCODING 217
SWIDTH 615 0
DWIDTH 14 0
BBX 11 7 2 3
BITMAP
3820
4440
8380
0000
0000
0000
FFE0
ENDCHAR
STARTCHAR fraction
ENCODING 218
SWIDTH 923 0
DWIDTH 22 0
BBX 18 13 2 0
BITMAP
100000
200000
400000
FFFFC0
400000
200000
100200
000100
000080
FFFFC0
000080
000100
000200
ENDCHAR
STARTCHAR currency
ENCODING 219
SWIDTH 923 0
DWIDTH 22 0
BBX 16 16 4 0
BITMAP
2020
6020
A040
2040
2080
2080
210C
2112
2221
2201
0401
0402
080C
0810
1021
103F
ENDCHAR
STARTCHAR guilsinglleft
ENCODING 220
SWIDTH 615 0
DWIDTH 16 0
BBX 13 14 2 0
BITMAP
FF80
2060
2010
2010
2008
2008
F808
2008
2008
2008
2010
2010
2060
FF80
ENDCHAR
STARTCHAR guilsinglright
ENCODING 221
SWIDTH 538 0
DWIDTH 12 0
BBX 9 15 2 0
BITMAP
0400
E800
1000
2800
4400
0200
3F00
4100
8080
8080
8080
8080
8080
4100
3E00
ENDCHAR
STARTCHAR uniFB01
ENCODING 222
SWIDTH 538 0
DWIDTH 13 0
BBX 10 14 2 0
BITMAP
F800
2000
2000
3F00
2080
2040
2040
2040
2040
2080
3F00
2000
2000
F800
ENDCHAR
STARTCHAR uniFB02
ENCODING 223
SWIDTH 615 0
DWIDTH 14 0
BBX 11 18 2 -4
BITMAP
E000
2000
2000
2000
2780
2840
3020
2020
2020
2020
2020
3020
2840
2780
2000
2000
2000
F800
ENDCHAR
STARTCHAR daggerdbl
ENCODING 224
SWIDTH 692 0
DWIDTH 16 0
BBX 15 20 1 -4
BITMAP
0020
0040
0080
0100
0000
0000
F83E
2008
1010
1010
0820
0440
0440
0280
0280
0100
0200
0200
0400
1800
ENDCHAR
STARTCHAR periodcentered
ENCODING 225
SWIDTH 923 0
DWIDTH 22 0
BBX 18 7 2 3
BITMAP
000200
000100
000080
FFFFC0
000080
000100
000200
ENDCHAR
STARTCHAR quotesinglbase
ENCODING 226
SWIDTH 923 0
DWIDTH 22 0
BBX 18 7 2 3
BITMAP
100000
200000
400000
FFFFC0
400000
200000
100000
ENDCHAR
STARTCHAR quotedblbase
ENCODING 227
SWIDTH 615 0
DWIDTH 16 0
BBX 13 14 2 0
BITMAP
FFF8
8008
8008
0000
0000
1040
1FC0
1040
1040
0000
0000
8008
8008
FFF8
ENDCHAR
STARTCHAR perthousand
ENCODING 228
SWIDTH 384 0
DWIDTH 10 0
BBX 7 8 2 0
BITMAP
3C
42
80
F8
80
80
42
3C
ENDCHAR
STARTCHAR Acircumflex
ENCODING 229
SWIDTH 923 0
DWIDTH 22 0
BBX 16 16 4 0
BITMAP
2020
6020
A040
2040
2080
2080
2104
210C
2214
2224
0444
0484
08FF
0804
1004
100E
ENDCHAR
STARTCHAR Ecircumflex
ENCODING 230
SWIDTH 461 0
DWIDTH 12 0
BBX 9 8 2 0
BITMAP
7F80
8800
0800
0800
0800
0800
0900
0600
ENDCHAR
STARTCHAR Aacute
ENCODING 231
SWIDTH 769 0
DWIDTH 16 0
BBX 13 20 2 0
BITMAP
0040
0080
0100
0200
0000
0000
0200
0200
0500
0500
0880
0880
0880
1040
1040
1FC0
2020
2020
2020
F8F8
ENDCHAR
STARTCHAR Edieresis
ENCODING 232
SWIDTH 692 0
DWIDTH 16 0
BBX 13 14 2 0
BITMAP
0700
18C0
2020
4010
4010
8888
8F88
8888
8888
4010
4010
2020
18C0
0700
ENDCHAR
STARTCHAR Egrave
ENCODING 233
SWIDTH 769 0
DWIDTH 16 0
BBX 13 14 2 0
BITMAP
8F88
8208
4210
4210
2220
2220
1240
0F80
0200
0200
0200
0200
0200
0F80
ENDCHAR
STARTCHAR Iacute
ENCODING 234
SWIDTH 384 0
DWIDTH 10 0
BBX 5 20 3 0
BITMAP
08
10
20
40
00
00
F8
20
20
20
20
20
20
20
20
20
20
20
20
F8
ENDCHAR
STARTCHAR Icircumflex
ENCODING 235
SWIDTH 769 0
DWIDTH 16 0
BBX 13 8 2 0
BITMAP
2020
4010
8208
8208
8208
8208
4510
38E0
ENDCHAR
STARTCHAR Idieresis
ENCODING 236
SWIDTH 538 0
DWIDTH 12 0
BBX 9 8 2 0
BITMAP
3880
4500
8200
8200
8200
8200
4500
3880
ENDCHAR
STARTCHAR Igrave
ENCODING 237
SWIDTH 538 0
DWIDTH 14 0
BBX 11 12 2 -4
BITMAP
6020
9020
0840
0840
0480
0500
0500
0200
0200
0200
2400
1800
ENDCHAR
STARTCHAR Oacute
ENCODING 238
SWIDTH 615 0
DWIDTH 16 0
BBX 13 20 2 0
BITMAP
0040
0080
0100
0200
0000
0000
0700
18C0
2020
4010
4010
8008
8008
8008
8008
4010
4010
2020
18C0
0700
ENDCHAR
STARTCHAR Ocircumflex
ENCODING 239
SWIDTH 615 0
DWIDTH 14 0
BBX 11 14 2 0
BITMAP
FFE0
2020
2020
2000
2000
2000
2000
2000
2000
2000
2000
2000
2000
F800
ENDCHAR
STARTCHAR NameMe.240
ENCODING 240
SWIDTH 461 0
DWIDTH 10 0
BBX 7 8 2 0
BITMAP
82
44
48
50
68
44
42
82
ENDCHAR
STARTCHAR Ograve
ENCODING 241
SWIDTH 538 0
DWIDTH 12 0
BBX 9 14 2 0
BITMAP
C000
2000
1000
0800
0800
0400
0A00
1200
2100
4100
4100
8080
8080
8080
ENDCHAR
STARTCHAR Uacute
ENCODING 242
SWIDTH 769 0
DWIDTH 18 0
BBX 15 20 2 0
BITMAP
0020
0040
0080
0100
0000
0000
F83E
2008
2008
2008
2008
2008
2008
2008
2008
2008
1010
1010
0820
07C0
ENDCHAR
STARTCHAR Ucircumflex
ENCODING 243
SWIDTH 461 0
DWIDTH 10 0
BBX 7 18 2 -4
BITMAP
82
44
38
10
20
40
40
80
80
80
80
80
40
3C
02
02
04
38
ENDCHAR
STARTCHAR Ugrave
ENCODING 244
SWIDTH 538 0
DWIDTH 14 0
BBX 11 12 2 -4
BITMAP
6020
9040
1080
0900
0A00
0400
0400
0A00
1200
2100
4120
80C0
ENDCHAR
STARTCHAR dotlessi
ENCODING 245
SWIDTH 538 0
DWIDTH 14 0
BBX 11 8 2 0
BITMAP
6080
9040
1020
1020
1020
1020
0840
0780
ENDCHAR
STARTCHAR circumflex
ENCODING 246
SWIDTH 692 0
DWIDTH 16 0
BBX 13 14 2 0
BITMAP
38E0
4510
8208
8208
8208
0200
0200
0200
0200
0200
0200
0200
0200
0F80
ENDCHAR
STARTCHAR tilde
ENCODING 247
SWIDTH 461 0
DWIDTH 12 0
BBX 9 8 2 0
BITMAP
C080
2080
2100
2100
2200
2400
2800
3000
ENDCHAR
STARTCHAR macron
ENCODING 248
SWIDTH 384 0
DWIDTH 8 0
BBX 5 14 2 2
BITMAP
80
80
88
98
A8
C8
88
88
98
A8
C8
88
08
08
ENDCHAR
STARTCHAR breve
ENCODING 249
SWIDTH 615 0
DWIDTH 14 0
BBX 10 9 2 2
BITMAP
FFC0
0000
0000
0000
FFC0
0000
0000
0000
FFC0
ENDCHAR
STARTCHAR dotaccent
ENCODING 250
SWIDTH 538 0
DWIDTH 12 0
BBX 10 12 1 -4
BITMAP
6700
9880
1040
1040
1040
1040
1040
1040
0040
0040
0040
0040
ENDCHAR
STARTCHAR ring
ENCODING 251
SWIDTH 307 0
DWIDTH 8 0
BBX 5 8 2 0
BITMAP
80
80
80
80
80
88
90
60
ENDCHAR
ENDFONT
